<svg xmlns="http://www.w3.org/2000/svg" viewBox="0 0 182.36 39.79"><defs><style>.cls-1{isolation:isolate;}.cls-2{fill:#231f20;}.cls-3{fill:#db2f27;}.cls-3,.cls-4,.cls-5,.cls-6{mix-blend-mode:multiply;}.cls-4{fill:#f1aa1e;}.cls-5{fill:#00bddd;}.cls-6{fill:#c1d52f;}</style></defs><title>Asset 1</title><g class="cls-1"><g id="Layer_2" data-name="Layer 2"><g id="Layer_1-2" data-name="Layer 1"><path class="cls-2" d="M56.14,14.64H68.69v1.07H57.37v8H67.56v1.06H57.37v9.86H56.14Z"/><path class="cls-2" d="M72.52,27.44a9.46,9.46,0,0,1,.43-2.9,7.33,7.33,0,0,1,1.28-2.39,6.05,6.05,0,0,1,2.07-1.64,7,7,0,0,1,5.66,0A6.05,6.05,0,0,1,84,22.15a7.31,7.31,0,0,1,1.27,2.39,9.81,9.81,0,0,1,0,5.81A7.07,7.07,0,0,1,84,32.75,6.12,6.12,0,0,1,82,34.37a7,7,0,0,1-5.66,0,6.12,6.12,0,0,1-2.07-1.62A7.08,7.08,0,0,1,73,30.35,9.53,9.53,0,0,1,72.52,27.44Zm1.06,0A8.51,8.51,0,0,0,74,29.92,6.75,6.75,0,0,0,75,32a5.14,5.14,0,0,0,1.74,1.47,5.42,5.42,0,0,0,4.76,0A5,5,0,0,0,83.24,32a6.56,6.56,0,0,0,1.07-2.11,8.72,8.72,0,0,0,0-5,6.67,6.67,0,0,0-1.07-2.11,5,5,0,0,0-1.73-1.47A5.16,5.16,0,0,0,75,22.85,6.86,6.86,0,0,0,74,25,8.56,8.56,0,0,0,73.58,27.44Z"/><path class="cls-2" d="M92.93,23.44H93a3.41,3.41,0,0,1,.71-1.32A5.22,5.22,0,0,1,95,21.06a6.24,6.24,0,0,1,1.65-.69,6.61,6.61,0,0,1,1.89-.21v1.07a5.06,5.06,0,0,0-1.92.16,4.66,4.66,0,0,0-2,1.24,8.06,8.06,0,0,0-.69.81,3.69,3.69,0,0,0-.49.87,5.77,5.77,0,0,0-.31,1.06,10.15,10.15,0,0,0-.14,1.4v7.87H91.87V20.25h1.06Z"/><path class="cls-2" d="M109.31,21.17h-3.13v10a3.88,3.88,0,0,0,.19,1.37,1.52,1.52,0,0,0,.6.77,2.15,2.15,0,0,0,1,.33,11.39,11.39,0,0,0,1.33,0v.93a10.39,10.39,0,0,1-1.58,0,3.06,3.06,0,0,1-1.36-.42,2.4,2.4,0,0,1-.93-1.05,3.84,3.84,0,0,1-.3-1.93v-10h-2.66v-.92h2.66V15.77h1.07v4.48h3.13Z"/><path class="cls-2" d="M113.18,20.25h1.26l5.34,13.13,4.93-13.13h1.21l-6.16,15.93c-.3.71-.58,1.32-.83,1.83a3.18,3.18,0,0,1-.85,1.13,2.59,2.59,0,0,1-1.33.55,15.87,15.87,0,0,1-2,.1v-.93a7,7,0,0,0,1.79-.18,2.75,2.75,0,0,0,1.2-.74,3.52,3.52,0,0,0,.65-1.13c.22-.55.5-1.3.84-2.26Z"/><path class="cls-2" d="M129,15.71V14.64h15.32v1.07h-7.06V34.64h-1.23V15.71Z"/><path class="cls-2" d="M150.05,33.4h.06L154,20.25h1.43L159.4,33.4h.06l4-13.15h1.18l-4.62,14.39h-1.32l-3.95-13h-.05l-4,13.05h-1.34l-4.57-14.39H146Z"/><path class="cls-2" d="M169.15,27.44a9.46,9.46,0,0,1,.43-2.9,7.31,7.31,0,0,1,1.27-2.39,6,6,0,0,1,2.08-1.64,7,7,0,0,1,5.65,0,6,6,0,0,1,2.07,1.64,7.33,7.33,0,0,1,1.28,2.39,10,10,0,0,1,0,5.81,7.08,7.08,0,0,1-1.28,2.4,6,6,0,0,1-2.07,1.62,7,7,0,0,1-5.65,0,6.06,6.06,0,0,1-2.08-1.62,7.07,7.07,0,0,1-1.27-2.4A9.53,9.53,0,0,1,169.15,27.44Zm1.06,0a8.5,8.5,0,0,0,.36,2.48A6.77,6.77,0,0,0,171.64,32a5,5,0,0,0,4.11,2,5,5,0,0,0,2.38-.55A5.14,5.14,0,0,0,179.87,32a6.77,6.77,0,0,0,1.07-2.11,8.72,8.72,0,0,0,0-5,6.88,6.88,0,0,0-1.07-2.11,5.14,5.14,0,0,0-1.74-1.47,5.14,5.14,0,0,0-6.49,1.47A6.88,6.88,0,0,0,170.57,25,8.55,8.55,0,0,0,170.21,27.44Z"/><rect class="cls-3" x="16.17" width="7.26" height="23.43"/><rect class="cls-4" x="35.94" y="19.29" width="7.26" height="23.43" transform="translate(70.57 -8.56) rotate(90)"/><polygon class="cls-5" points="23.43 0 23.43 23.43 0 23.43 23.43 0"/><circle class="cls-6" cx="39.57" cy="11.71" r="11.71"/><rect class="cls-3" x="16.17" y="27.38" width="7.26" height="7.26"/></g></g></g></svg>