<?xml version="1.0" encoding="UTF-8"?>
<svg width="300px" height="220px" viewBox="0 0 300 220" version="1.1" xmlns="http://www.w3.org/2000/svg" xmlns:xlink="http://www.w3.org/1999/xlink">
    <!-- Generator: Sketch 48.2 (47327) - http://www.bohemiancoding.com/sketch -->
    <title>button-style-sample</title>
    <desc>Created with Sketch.</desc>
    <defs>
        <rect id="path-1" x="0" y="0" width="84" height="36" rx="2"></rect>
        <filter x="-0.6%" y="-1.4%" width="102.4%" height="105.6%" filterUnits="objectBoundingBox" id="filter-2">
            <feOffset dx="0.5" dy="0.5" in="SourceAlpha" result="shadowOffsetOuter1"></feOffset>
            <feGaussianBlur stdDeviation="0.25" in="shadowOffsetOuter1" result="shadowBlurOuter1"></feGaussianBlur>
            <feColorMatrix values="0 0 0 0 0   0 0 0 0 0   0 0 0 0 0  0 0 0 0.2 0" type="matrix" in="shadowBlurOuter1"></feColorMatrix>
        </filter>
        <path d="M2,-1.33228118e-15 L8.17157288,-2.22044605e-15 C9.27614237,-2.42335449e-15 10.1715729,0.8954305 10.1715729,2 C10.1715729,2.53043298 9.96085919,3.03914081 9.58578644,3.41421356 L3.41421356,9.58578644 C2.63316498,10.366835 1.36683502,10.366835 0.585786438,9.58578644 C0.210713681,9.21071368 6.49593051e-17,8.70200585 0,8.17157288 L0,2 C-1.3527075e-16,0.8954305 0.8954305,-1.5734484e-15 2,-1.77635684e-15 Z" id="path-3"></path>
        <path d="M2,1 L11.5857864,1 C12.1380712,1 12.5857864,1.44771525 12.5857864,2 C12.5857864,2.26521649 12.4804296,2.5195704 12.2928932,2.70710678 L2.70710678,12.2928932 C2.31658249,12.6834175 1.68341751,12.6834175 1.29289322,12.2928932 C1.10535684,12.1053568 1,11.8510029 1,11.5857864 L1,2 C1,1.44771525 1.44771525,1 2,1 Z" id="path-4"></path>
    </defs>
    <g id="Buttons" stroke="none" stroke-width="1" fill="none" fill-rule="evenodd" transform="translate(-570.000000, -1311.000000)">
        <g id="Button" transform="translate(331.000000, 1305.000000)">
            <g id="button-style-sample" transform="translate(239.000000, 6.000000)">
                <g fill-rule="evenodd">
                    <rect id="Rectangle-9-Copy-2" fill="#F4F4F4" x="0" y="0" width="300" height="220"></rect>
                    <g id="button" stroke-width="1" transform="translate(74.000000, 78.000000)">
                        <g id="measurement-copy-4" transform="translate(116.000000, 9.000000)" fill="#BD10E0">
                            <text id="36dp-Min-Height" font-family="Verdana" font-size="6" font-weight="normal">
                                <tspan x="7" y="20">36dp Min Height</tspan>
                            </text>
                            <rect id="Rectangle-12" x="2" y="0" width="1" height="36"></rect>
                            <rect id="Rectangle-12-Copy" transform="translate(2.500000, 0.500000) rotate(90.000000) translate(-2.500000, -0.500000) " x="2" y="-2" width="1" height="5"></rect>
                            <rect id="Rectangle-12-Copy-2" transform="translate(2.500000, 35.500000) rotate(90.000000) translate(-2.500000, -35.500000) " x="2" y="33" width="1" height="5"></rect>
                        </g>
                        <g id="flat-button-copy-11" transform="translate(30.000000, 9.000000)">
                            <g id="Rectangle-6">
                                <use fill="black" fill-opacity="1" filter="url(#filter-2)" xlink:href="#path-1"></use>
                                <use fill="#C4D600" fill-rule="evenodd" xlink:href="#path-1"></use>
                            </g>
                            <text id="DEFAULT" font-family="Verdana" font-size="12" font-weight="normal" fill="#000000">
                                <tspan x="15" y="23">DEFAULT</tspan>
                            </text>
                        </g>
                        <g id="measurement-copy-3">
                            <text id="15" font-family="Verdana" font-size="6" font-weight="normal" fill="#BD10E0">
                                <tspan x="34" y="36">15</tspan>
                            </text>
                            <text id="15" font-family="Verdana" font-size="6" font-weight="normal" fill="#BD10E0">
                                <tspan x="18" y="36">15</tspan>
                            </text>
                            <text id="2dp-Corner-Radius" font-family="Verdana" font-size="6" font-weight="normal" fill="#BD10E0">
                                <tspan x="0.201171875" y="6">2dp Corner Radius</tspan>
                            </text>
                            <g id="corner-angle" transform="translate(30.000000, 9.000000)">
                                <g id="Rectangle-7">
                                    <use fill="#C4D600" fill-rule="evenodd" xlink:href="#path-3"></use>
                                    <path stroke="#BD10E0" stroke-width="1" d="M2,0.5 C1.17157288,0.5 0.5,1.17157288 0.5,2 L0.5,8.17157288 C0.5,8.56939761 0.658035261,8.95092848 0.939339828,9.23223305 C1.52512627,9.81801948 2.47487373,9.81801948 3.06066017,9.23223305 L9.23223305,3.06066017 C9.51353761,2.7793556 9.67157288,2.39782473 9.67157288,2 C9.67157288,1.17157288 9,0.5 8.17157288,0.5 L2,0.5 Z"></path>
                                </g>
                                <g id="Rectangle-7-Copy">
                                    <use fill="#C4D600" fill-rule="evenodd" xlink:href="#path-4"></use>
                                    <path stroke="#C4D600" stroke-width="1" d="M2,1.5 C1.72385763,1.5 1.5,1.72385763 1.5,2 L1.5,11.5857864 C1.5,11.7183947 1.55267842,11.8455716 1.64644661,11.9393398 C1.84170876,12.134602 2.15829124,12.134602 2.35355339,11.9393398 L11.9393398,2.35355339 C12.033108,2.2597852 12.0857864,2.13260824 12.0857864,2 C12.0857864,1.72385763 11.8619288,1.5 11.5857864,1.5 L2,1.5 Z"></path>
                                </g>
                            </g>
                        </g>
                    </g>
                </g>
                <path d="M105,106 L120,106" id="Line" stroke="#BD10E0" stroke-width="1" stroke-linecap="square"></path>
                <path id="Line-decoration-1" d="M105,103 L105,109" stroke="#BD10E0" stroke-width="1" stroke-linecap="square"></path>
                <path id="Line-decoration-2" d="M120,103 L120,109" stroke="#BD10E0" stroke-width="1" stroke-linecap="square"></path>
                <path d="M89,106 L104,106" id="Line-Copy" stroke="#BD10E0" stroke-width="1" stroke-linecap="square"></path>
                <path id="Line-Copy-decoration-1" d="M89,103 L89,109" stroke="#BD10E0" stroke-width="1" stroke-linecap="square"></path>
                <path id="Line-Copy-decoration-2" d="M104,103 L104,109" stroke="#BD10E0" stroke-width="1" stroke-linecap="square"></path>
            </g>
        </g>
    </g>
</svg>