<svg id="Layer_1" data-name="Layer 1" xmlns="http://www.w3.org/2000/svg" viewBox="0 0 19.98 19"><defs><style>.cls-1{fill:#ccc;}</style></defs><title>printer</title><path d="M19,5H1A1,1,0,0,0,0,6v9.43a1,1,0,0,0,1,1H2.87V12.48a.38.38,0,0,1,.38-.39h13.5a.38.38,0,0,1,.38.39v3.89H19a1,1,0,0,0,1-1V6A1,1,0,0,0,19,5Z" transform="translate(-0.01)"/><path d="M16,12.8H4a.35.35,0,0,0-.38.31V18.7A.35.35,0,0,0,4,19H16a.35.35,0,0,0,.38-.3V13.11A.35.35,0,0,0,16,12.8Zm-.33,5.33a.36.36,0,0,1-.39.31H4.68a.36.36,0,0,1-.39-.31V13.67a.35.35,0,0,1,.39-.3H15.32a.35.35,0,0,1,.39.3Z" transform="translate(-0.01)"/><path d="M4.63,0V4.13H15.37V0ZM15,3.87H5V.26H15Z" transform="translate(-0.01)"/><rect class="cls-1" x="5.44" y="0.75" width="9.09" height="0.57"/><rect class="cls-1" x="5.44" y="1.78" width="9.09" height="0.57"/><rect class="cls-1" x="5.44" y="2.81" width="9.09" height="0.57"/></svg>